# xmcd
#
# Track frame offsets: 
#        150
#        14867
#        32475
#        51800
#        73950
#        86900
#        121000
#        132412
#        158100
#        174625
#        193390
#        224475
#
# Disc length: 3187 seconds
#
# Revision: 7
# Processed by: cddbd v1.5.2PL0 Copyright (c) Steve Scherf et al.
# Submitted via: ExactAudioCopy v0.99pb5
#
DISCID=b80c710c
DTITLE=Tinsley ELLIS - Trouble Time
DYEAR=1992
DGENRE=Blues
TTITLE0=Highwayman
TTITLE1=Hey Hey Baby
TTITLE2=Sign Of The Blues
TTITLE3=What Have I Done Wrong?
TTITLE4=The Big Chicken
TTITLE5=The Axe
TTITLE6=Come Morning
TTITLE7=My Restless Heart
TTITLE8=Bad Dream
TTITLE9=The Hulk
TTITLE10=Now I'm Gone
TTITLE11=Red Dress
EXTD=\nFixed fucked track titles\n\n\n
EXTT0=
EXTT1=
EXTT2=
EXTT3=
EXTT4=
EXTT5=
EXTT6=
EXTT7=
EXTT8=
EXTT9=
EXTT10=
EXTT11=
PLAYORDER=
